<mxfile host="app.diagrams.net" modified="2023-12-20T09:07:12.305Z" agent="Mozilla/5.0 (Windows NT 10.0; Win64; x64) AppleWebKit/537.36 (KHTML, like Gecko) Chrome/120.0.0.0 Safari/537.36" version="22.1.11" etag="wGfT352jpw9-Wb5UGrwK" type="github">
  <diagram name="第 1 页" id="_l_oXyiLl_Sc3-X2pO2I">
    <mxGraphModel>
      <root>
        <mxCell id="0" />
        <mxCell id="1" parent="0" />
      </root>
    </mxGraphModel>
  </diagram>
</mxfile>
